<svg id="visual" viewBox="0 0 900 600" width="900" height="600" xmlns="http://www.w3.org/2000/svg" xmlns:xlink="http://www.w3.org/1999/xlink" version="1.1"><g transform="translate(429.44765487909217 317.1563394869926)"><path d="M163.8 -223.6C235.1 -173.6 331.6 -156.3 366.8 -105.6C402 -54.8 376 29.5 345 108.2C314 186.9 278.1 260.1 219.8 294.8C161.4 329.5 80.7 325.8 0.4 325.2C-79.9 324.7 -159.9 327.4 -195.5 285.3C-231.2 243.2 -222.6 156.4 -252.7 78.6C-282.8 0.8 -351.6 -67.9 -341.6 -114.8C-331.6 -161.7 -242.8 -186.8 -172.7 -237.2C-102.7 -287.6 -51.3 -363.3 -2.5 -359.8C46.2 -356.3 92.5 -273.6 163.8 -223.6" fill="#BB004B"></path></g></svg>