<svg id="visual" viewBox="0 0 900 600" width="900" height="600" xmlns="http://www.w3.org/2000/svg" xmlns:xlink="http://www.w3.org/1999/xlink" version="1.1"><rect x="0" y="0" width="900" height="600" fill="#FF0066"></rect><g transform="translate(445.9467263321485 283.58216154081003)"><path d="M169 -213.5C216.8 -197.8 252 -145.5 276.8 -86C301.5 -26.5 315.8 40.4 301.7 102.5C287.6 164.5 245.2 221.8 190.2 245.6C135.2 269.4 67.6 259.7 1.3 258C-65 256.2 -130.1 262.4 -159.7 230.4C-189.4 198.3 -183.6 128.1 -210.5 64C-237.4 -0.1 -297 -58 -299.1 -111.3C-301.2 -164.6 -245.8 -213.4 -186.4 -225.3C-127 -237.3 -63.5 -212.4 -1.5 -210.4C60.5 -208.3 121.1 -229.2 169 -213.5" fill="#BB004B"></path></g></svg>