<svg id="visual" viewBox="0 0 900 600" width="900" height="600" xmlns="http://www.w3.org/2000/svg" xmlns:xlink="http://www.w3.org/1999/xlink" version="1.1"><rect x="0" y="0" width="900" height="600" fill="#FF0066"></rect><g transform="translate(503.8534494275699 345.2584101005555)"><path d="M166 -255.6C198.3 -204.9 196.2 -134 192.5 -78.3C188.8 -22.7 183.6 17.6 175.5 61.6C167.5 105.5 156.6 153.1 126.9 181.9C97.2 210.8 48.6 220.9 -9.2 233.6C-67 246.2 -134 261.5 -192.5 242C-251 222.5 -301 168.2 -302.2 110.9C-303.4 53.5 -255.8 -7.1 -234.1 -76.7C-212.3 -146.2 -216.4 -224.8 -181.7 -274.7C-146.9 -324.6 -73.5 -345.8 -3.3 -341.2C66.8 -336.6 133.6 -306.2 166 -255.6" fill="#BB004B"></path></g></svg>